<svg xmlns="http://www.w3.org/2000/svg" xmlns:xlink="http://www.w3.org/1999/xlink" viewBox="0 0 1080 1080"><defs><style>.cls-1{fill:none;}.cls-2{fill:url(#New_Pattern_5);}</style><pattern id="New_Pattern_5" data-name="New Pattern 5" width="108" height="108" patternUnits="userSpaceOnUse" viewBox="0 0 108 108"><rect class="cls-1" width="108" height="108"/><path d="M108,0V.54A64.19,64.19,0,0,0,86.78,14.39C81.14,20,78.46,24.9,75.36,30.58A110.62,110.62,0,0,1,64.27,47.77,42.28,42.28,0,0,1,56,56.23a81.16,81.16,0,0,0-11.3,11c-5.08,5.69-8.76,10.47-12,14.7-5.76,7.5-10.32,13.42-19,19.34A74.26,74.26,0,0,1,1.27,108H0v-.54a73,73,0,0,0,13.08-7.07C21.65,94.56,25.93,89,31.87,81.27c3.26-4.24,7-9,12.05-14.76A81.32,81.32,0,0,1,55.35,55.45a41.79,41.79,0,0,0,8.14-8.3,110.21,110.21,0,0,0,11-17c3.14-5.74,5.85-10.7,11.6-16.42A64.65,64.65,0,0,1,106.7,0Z"/><path d="M54.59,0l-.16.26a159.66,159.66,0,0,1-29.78,36.1A159.35,159.35,0,0,1,.26,54.43L0,54.59V53.41A157.77,157.77,0,0,0,24,35.62,158.58,158.58,0,0,0,53.41,0Z"/><path d="M54.59,0l-.16.26a159.66,159.66,0,0,1-29.78,36.1A159.35,159.35,0,0,1,.26,54.43L0,54.59V53.41A157.77,157.77,0,0,0,24,35.62,158.58,158.58,0,0,0,53.41,0Z"/><path d="M108,0V.54A64.19,64.19,0,0,0,86.78,14.39C81.14,20,78.46,24.9,75.36,30.58A110.62,110.62,0,0,1,64.27,47.77,42.28,42.28,0,0,1,56,56.23a81.16,81.16,0,0,0-11.3,11c-5.08,5.69-8.76,10.47-12,14.7-5.76,7.5-10.32,13.42-19,19.34A74.26,74.26,0,0,1,1.27,108H0v-.54a73,73,0,0,0,13.08-7.07C21.65,94.56,25.93,89,31.87,81.27c3.26-4.24,7-9,12.05-14.76A81.32,81.32,0,0,1,55.35,55.45a41.79,41.79,0,0,0,8.14-8.3,110.21,110.21,0,0,0,11-17c3.14-5.74,5.85-10.7,11.6-16.42A64.65,64.65,0,0,1,106.7,0Z"/><path d="M108,53.41v1.18c-1.63.92-6.7,4.83-10.79,7.91C76.93,77.33,76.13,78,75.28,78.7,66.72,85.81,59.63,99.58,54.59,108H53.41l.12-.24c4.84-9.09,12.39-22.58,21.11-29.83.9-.74,1.67-1.39,22-16.23C100.84,58.56,106,54.52,108,53.41Z"/><polygon points="108 107.46 108 108 106.7 108 108 107.46"/><polygon points="0 0.54 1.27 0 0 0 0 0.54"/></pattern></defs><title>bg_strings2</title><g id="Layer_2" data-name="Layer 2"><g id="Layer_2-2" data-name="Layer 2"><rect class="cls-2" width="1080" height="1080"/></g></g></svg>
