<svg xmlns="http://www.w3.org/2000/svg" viewBox="0 0 108 108"><title>bg_strings</title><g id="Layer_2" data-name="Layer 2"><g id="Layer_2-2" data-name="Layer 2"><path d="M108,0V.54A64.19,64.19,0,0,0,86.78,14.39C81.14,20,78.46,24.9,75.36,30.58A110.62,110.62,0,0,1,64.27,47.77,42.28,42.28,0,0,1,56,56.23a81.16,81.16,0,0,0-11.3,11c-5.08,5.69-8.76,10.47-12,14.7-5.76,7.5-10.32,13.42-19,19.34A74.26,74.26,0,0,1,1.27,108H0v-.54a73,73,0,0,0,13.08-7.07C21.65,94.56,25.93,89,31.87,81.27c3.26-4.24,7-9,12.05-14.76A81.32,81.32,0,0,1,55.35,55.45a41.79,41.79,0,0,0,8.14-8.3,110.21,110.21,0,0,0,11-17c3.14-5.74,5.85-10.7,11.6-16.42A64.65,64.65,0,0,1,106.7,0Z"/><path d="M108,53.38v1.24L97.21,62.5C76.93,77.33,76.13,78,75.28,78.7c-8.56,7.11-15.53,17-20.74,29.3H53.46l.08-.19c5.28-12.57,12.38-22.63,21.1-29.88.9-.74,1.67-1.39,22-16.23Z"/><path d="M54.59,0l-.16.26a159.66,159.66,0,0,1-29.78,36.1A159.35,159.35,0,0,1,.26,54.43L0,54.59V53.41A157.77,157.77,0,0,0,24,35.62,158.58,158.58,0,0,0,53.41,0Z"/><path d="M54.59,0l-.16.26a159.66,159.66,0,0,1-29.78,36.1A159.35,159.35,0,0,1,.26,54.43L0,54.59V53.41A157.77,157.77,0,0,0,24,35.62,158.58,158.58,0,0,0,53.41,0Z"/><path d="M108,0V.54A64.19,64.19,0,0,0,86.78,14.39C81.14,20,78.46,24.9,75.36,30.58A110.62,110.62,0,0,1,64.27,47.77,42.28,42.28,0,0,1,56,56.23a81.16,81.16,0,0,0-11.3,11c-5.08,5.69-8.76,10.47-12,14.7-5.76,7.5-10.32,13.42-19,19.34A74.26,74.26,0,0,1,1.27,108H0v-.54a73,73,0,0,0,13.08-7.07C21.65,94.56,25.93,89,31.87,81.27c3.26-4.24,7-9,12.05-14.76A81.32,81.32,0,0,1,55.35,55.45a41.79,41.79,0,0,0,8.14-8.3,110.21,110.21,0,0,0,11-17c3.14-5.74,5.85-10.7,11.6-16.42A64.65,64.65,0,0,1,106.7,0Z"/><path d="M108,53.38v1.24L97.21,62.5C76.93,77.33,76.13,78,75.28,78.7c-8.56,7.11-15.53,17-20.74,29.3H53.46l.08-.19c5.28-12.57,12.38-22.63,21.1-29.88.9-.74,1.67-1.39,22-16.23Z"/></g></g></svg>
