<?xml version="1.0" encoding="utf-8"?>
<!-- Generator: Adobe Illustrator 24.0.1, SVG Export Plug-In . SVG Version: 6.00 Build 0)  -->
<svg version="1.1" id="Layer_1" xmlns="http://www.w3.org/2000/svg" xmlns:xlink="http://www.w3.org/1999/xlink" x="0px" y="0px"
	 viewBox="0 0 1013.6 403.1" style="enable-background:new 0 0 1013.6 403.1;" xml:space="preserve">
<style type="text/css">
	.st0{fill:#E05934;}
	.st1{fill:#FFFFFF;}
</style>
<title>logo</title>
<g id="Layer_2_1_">
	<g id="Layer_1-2">
		<path class="st0" d="M975,342.3H38.6c0-21.3-17.3-38.6-38.6-38.6V159.1c21.3,0,38.6-17.3,38.6-38.6H975
			c0,21.3,17.3,38.6,38.6,38.6v144.7C992.3,303.7,975,321,975,342.3z"/>
		<path class="st1" d="M140.4,283.9c-0.9,0-1.3-0.1-1.3-1.1v-3c0-0.9,0.3-1.3,1.3-1.3l4.5-0.2c2.8-0.1,3.1-1.1,3.1-12.9v-62.3h-0.3
			l-20.4,81.6c-0.2,0.8-0.5,1.1-1.2,1.1h-8.3c-0.6,0-0.9-0.2-1.1-1.1L96.2,203h-0.3v43.6c0,26.6,1.7,31.6,7.9,31.9l2.5,0.2
			c0.9,0,1.3,0.3,1.3,1.3v3c0,0.9-0.3,1.1-1.3,1.1h-26c-0.9,0-1.3-0.1-1.3-1.1v-3c0-0.9,0.3-1.1,1.3-1.3l1.7-0.2
			c4.7-0.3,7-5.4,7-31.9v-49c0-11.8-0.6-12.9-3.4-13.1l-4.6-0.4c-1,0-1.3-0.2-1.3-1.1v-3.1c0-0.9,0.3-1.1,1.3-1.1h26.3
			c0.8,0,1.4,0.2,1.6,1.3l18.7,77.2h0.3l19.2-77.2c0.2-1.1,0.8-1.3,1.6-1.3h26.1c0.9,0,1.2,0.2,1.2,1.1v3.1c0,0.9-0.3,1.1-1.2,1.1
			l-4.7,0.3c-2.8,0.2-3.3,1.1-3.3,13.1v68c0,11.8,0.1,12.8,3.1,12.9l4.5,0.2c0.9,0,1.2,0.3,1.2,1.3v3c0,0.9-0.3,1.1-1.2,1.1
			L140.4,283.9z"/>
		<path class="st1" d="M260.1,184.3c-4.5,0.5-6.5,5.4-6.5,31.9v30c0,27.7-7.8,39.7-28.6,39.7c-20.6,0-30.7-13.2-30.7-34.7v-54
			c0-11.8-0.1-12.8-3.3-12.9l-4.4-0.2c-0.9-0.2-1.3-0.3-1.3-1.3v-3c0-0.9,0.3-1.1,1.3-1.1h33.9c0.9,0,1.2,0.2,1.2,1.1v3
			c0,0.9-0.3,1.1-1.2,1.3l-4.5,0.2c-3,0.1-3.1,1.1-3.1,12.9v51c0,19.5,4.2,28.6,16.7,28.6s16.6-8.9,16.6-30.8v-29.8
			c0-26.6-1.1-31.4-8.7-31.9l-2.8-0.2c-0.9-0.2-1.2-0.3-1.2-1.3v-3c0-0.9,0.3-1.1,1.2-1.1h26.9c0.9,0,1.2,0.2,1.2,1.1v3
			c0,0.9-0.3,1.1-1.2,1.3L260.1,184.3z"/>
		<path class="st1" d="M294.1,285.9c-6.2,0.1-12.3-1.6-17.6-4.8l-0.3,2.2c-0.2,0.9-0.5,1.4-1.4,1.4h-2.2c-1.1,0-1.2-0.5-1.2-1.4
			l-1.6-33.2c0-1.1,0.1-1.4,1.2-1.4h3.3c0.9,0,1.1,0.3,1.1,1.2l0.3,3.4c0.8,13.4,7.3,26.6,18.5,26.6c8.7,0,13.5-5.6,13.5-15.6
			c0-14-7.3-19.6-18.5-28.3c-9.3-7-17.4-14.5-17.4-30.2c0-16.6,9.6-29.1,25.5-29.1c5.3,0.1,10.5,1.8,14.8,4.8l0.5-2.2
			c0-0.9,0.3-1.4,1.2-1.4h2.1c1.1,0,1.3,0.5,1.3,1.4v30c0,1.1-0.2,1.4-1.3,1.4h-3.3c-0.8,0-0.9-0.3-1.1-1.4V208
			c-0.8-14.8-6.5-25.4-15.2-25.4c-6.4,0-10.3,5.3-10.3,13.2c0,11.5,6.9,17.9,16.2,25.2c10.9,8.3,20.5,16,20.5,33.8
			C322.9,273.3,310.9,285.9,294.1,285.9z"/>
		<path class="st1" d="M333.8,283.9c-0.9,0-1.3-0.1-1.3-1.1v-3c0-0.9,0.3-1.1,1.3-1.3l4.5-0.2c3-0.3,3.1-1.1,3.1-12.9v-68.3
			c0-11.8-0.1-12.8-3.1-12.9l-4.5-0.2c-0.9-0.2-1.3-0.3-1.3-1.3v-3c0-0.9,0.3-1.1,1.3-1.1h33.9c0.9,0,1.3,0.2,1.3,1.1v3
			c0,0.9-0.3,1.1-1.3,1.3l-4.4,0.2c-3.1,0.1-3.1,1.1-3.1,12.9v68.3c0,11.8,0,12.6,3.1,12.9l4.4,0.2c0.9,0.2,1.3,0.3,1.3,1.3v3
			c0,0.9-0.3,1.1-1.3,1.1L333.8,283.9z"/>
		<path class="st1" d="M433.4,283.9c-1.1,0-1.4-0.3-1.9-1.5l-18.7-46.5c-3.3,4.7-4.7,8.9-4.7,15.4v14.3c0,11.8,0.2,12.8,3.1,12.9
			l4.5,0.2c0.9,0.2,1.2,0.3,1.2,1.3v3c0,0.9-0.3,1.1-1.2,1.1h-34.1c-0.9,0-1.1-0.1-1.1-1.1v-3c0-0.9,0.2-1.1,1.1-1.3l4.5-0.2
			c3-0.1,3.1-1.1,3.1-12.9v-68.3c0-11.8-0.1-12.8-3.1-12.9l-4.4-0.2c-0.9-0.2-1.3-0.3-1.3-1.3v-3c0-0.9,0.3-1.1,1.3-1.1h33.9
			c0.9,0,1.2,0.2,1.2,1.1v3c0,0.9-0.3,1.1-1.2,1.3l-4.5,0.2c-3,0.1-3.1,1.1-3.1,12.9v36.1h0.2c2.2-5.4,7-12.4,18.5-29.6
			c3.4-5.8,6.4-10.6,6.4-14.6c0-3.1-1.2-4.7-4-4.8l-2.8-0.2c-0.9-0.2-1.1-0.3-1.1-1.3v-3c0-0.9,0.1-1.1,1.1-1.1h28.8
			c0.9,0,1.3,0.2,1.3,1.1v3c0,0.9-0.3,1.1-1.3,1.3l-1.9,0.2c-6.1,0.6-8.2,3.4-16.2,15.9l-11.4,16.6l18.7,46.2
			c5.3,13.4,6.2,14.9,9.7,15.4l1.5,0.2c0.9,0.2,1.1,0.3,1.1,1.3v3c0,0.9-0.2,1.1-1.1,1.1H433.4z"/>
		<path class="st1" d="M512.5,283.9c-0.9,0-1.2-0.1-1.2-1.1v-3c0-0.9,0.3-1.1,1.2-1.3l4.4-0.2c3.1-0.1,3.3-1.1,3.3-12.9v-34.4h-28.3
			v34.4c0,11.8,0.1,12.8,3.3,12.9l4.4,0.2c0.9,0.2,1.3,0.3,1.3,1.3v3c0,0.9-0.3,1.1-1.3,1.1h-33.9c-0.9,0-1.3-0.1-1.3-1.1v-3
			c0-0.9,0.3-1.1,1.3-1.3l4.4-0.2c3-0.1,3.3-1.1,3.3-12.9v-68.3c0-11.8-0.3-12.8-3.3-12.9l-4.4-0.2c-0.9-0.2-1.3-0.3-1.3-1.3v-3
			c0-0.9,0.3-1.1,1.3-1.1h33.9c0.9,0,1.3,0.2,1.3,1.1v3c0,0.9-0.3,1.1-1.3,1.3l-4.4,0.2c-3.1,0.1-3.3,1.1-3.3,12.9v27.4h28.3v-27.4
			c0-11.8-0.2-12.8-3.3-12.9l-4.4-0.2c-0.9-0.2-1.2-0.3-1.2-1.3v-3c0-0.9,0.3-1.1,1.2-1.1h33.9c0.9,0,1.3,0.2,1.3,1.1v3
			c0,0.9-0.3,1.1-1.3,1.3l-4.5,0.2c-2.8,0.1-3.1,1.1-3.1,12.9v68.3c0,11.8,0.3,12.8,3.1,12.9l4.5,0.2c0.9,0.2,1.3,0.3,1.3,1.3v3
			c0,0.9-0.3,1.1-1.3,1.1L512.5,283.9z"/>
		<path class="st1" d="M598.3,283.9c-0.9,0-1.3-0.1-1.3-1.1v-3c0-0.9,0.3-1.1,1.3-1.3l3.1-0.2c2.2-0.1,3.6-0.6,3.6-3.6
			c0-2.6-0.8-6.9-2.8-14L599,247h-23.3l-0.5,1.9c-1.7,6.2-3.3,13.9-3.3,19.9c0,5.9,1.9,9.3,5.5,9.6l2.7,0.2c0.9,0.2,1.2,0.3,1.2,1.3
			v3c0,0.9-0.3,1.1-1.2,1.1h-25.5c-0.9,0-1.3-0.1-1.3-1.1v-3c0-0.9,0.3-1.1,1.3-1.3l1.2-0.2c3.1-0.5,4.2-2.5,6.8-11.2
			c1.5-4.8,3.9-12.9,5.8-19.8l19.3-69.4c0.2-0.9,0.3-1.2,1.2-1.2h9.2c0.9,0,1.1,0.1,1.4,1.2l22.9,82.8c4.4,16.2,5.1,17.3,8.4,17.6
			l2,0.2c0.9,0.2,1.3,0.3,1.3,1.3v3c0,0.9-0.3,1.1-1.3,1.1L598.3,283.9z M587.5,203.4h-0.2l-9.8,37.4h19.6L587.5,203.4z"/>
		<path class="st1" d="M699.5,285.9c-0.6,0-0.9-0.3-1.4-1.1l-40.2-80.9h-0.2v42.6c0,26.6,3.3,31.6,10.1,31.9l3.6,0.2
			c0.9,0.2,1.3,0.3,1.3,1.3v3c0,0.9-0.3,1.1-1.3,1.1h-29.7c-0.9,0-1.2-0.1-1.2-1.1v-3c0-0.9,0.3-1.1,1.2-1.3l1.7-0.2
			c4.7-0.3,7.2-5.4,7.2-31.9v-49c0-12-0.5-12.9-3.3-13.1l-4.8-0.3c-0.9,0-1.3-0.2-1.3-1.1v-3.1c0-0.9,0.3-1.1,1.3-1.1h23.2
			c0.9,0,1.2,0.3,1.7,1.3l34.4,71.1h0.3v-35c0-26.6-3.4-31.4-10.1-31.9l-3.6-0.2c-0.9-0.2-1.2-0.3-1.2-1.3v-3c0-0.9,0.3-1.1,1.2-1.1
			h29.4c0.9,0,1.2,0.2,1.2,1.1v3c0,0.9-0.3,1.1-1.2,1.3l-1.7,0.2c-4.5,0.5-7,5.4-7,31.9v68.6c0,0.8-0.3,1.1-1.2,1.1L699.5,285.9z"/>
		<path class="st1" d="M766.7,283.9h-37.8c-0.9,0-1.2-0.1-1.2-1.1v-3c0-0.9,0.3-1.1,1.2-1.3l4.4-0.2c3.1-0.1,3.3-1.1,3.3-12.9v-68.3
			c0-11.8-0.2-12.8-3.3-12.9l-4.4-0.2c-0.9-0.2-1.2-0.3-1.2-1.3v-3c0-0.9,0.3-1.1,1.2-1.1h35.8c25.5,0,42.6,16.8,42.6,51.4
			C807.3,264.9,789.2,283.9,766.7,283.9z M762.4,185.4h-7.2v92h8.7c16.7,0,22.9-13.7,22.9-46.1C786.8,197.1,779,185.4,762.4,185.4
			L762.4,185.4z"/>
		<path class="st1" d="M812.4,283.9c-0.9,0-1.1-0.1-1.1-1.1v-3c0-0.9,0.2-1.3,1.1-1.3l4.5-0.2c3-0.1,3.3-1.1,3.3-12.9v-68.3
			c0-11.8-0.3-12.8-3.3-12.9l-4.4-0.2c-0.9-0.2-1.2-0.3-1.2-1.3v-3c0-0.9,0.3-1.1,1.2-1.1H868c1.1,0,1.2,0.5,1.2,1.4v30.2
			c0,1.1-0.2,1.4-1.2,1.4h-3.3c-0.8,0-0.9-0.3-1.1-1.4v-2c-0.5-14.6-3.6-23.4-13.8-23.4h-10.9V226h5.2c6.2,0,8.2-5,8.5-12.6l0.2-1.4
			c0-1.1,0.2-1.4,1.1-1.4h2.8c1.1,0,1.3,0.5,1.3,1.4v34.6c0,1.1-0.2,1.4-1.3,1.4h-2.8c-0.9,0-1.1-0.3-1.1-1.4l-0.2-2.2
			c-0.2-7.5-2.3-12.4-8.5-12.4h-5.1v45.8h15.6c10.9,0,13.8-11.4,14.8-24.1l0.2-1.4c0.2-0.9,0.3-1.4,1.1-1.4h3.3
			c1.1,0,1.2,0.5,1.2,1.4l-1.4,30.4c0,0.9-0.2,1.4-1.3,1.4L812.4,283.9z"/>
		<path class="st1" d="M884.2,283.9c-0.9,0-1.3-0.1-1.3-1.1v-3c0-0.9,0.3-1.1,1.3-1.3l4.5-0.2c2.8-0.1,3.1-1.1,3.1-12.9v-68.3
			c0-11.8-0.3-12.8-3.1-12.9l-4.5-0.2c-0.9-0.2-1.3-0.3-1.3-1.3v-3c0-0.9,0.3-1.1,1.3-1.1h36.1c0.9,0,1.3,0.2,1.3,1.1v3
			c0,0.9-0.3,1.3-1.3,1.3l-6.7,0.2c-3,0.1-3.1,1.1-3.1,12.9v80.5h11.9c10.6,0,14.5-10.3,15.3-30.4c0-1.1,0.3-1.4,1.1-1.4h3.3
			c0.9,0,1.1,0.3,1.1,1.4l-1.6,35.2c0,0.9-0.2,1.4-1.2,1.4H884.2z"/>
		<path d="M379.8,86c-0.6,0.1-0.9,0.1-1-0.6s-0.2-1.1-0.4-1.7s0.1-0.8,0.7-0.9l2-0.6c1.6-0.4,2.6-0.9,2.2-2.9s-1.6-4.8-4.1-9.5
			c-1.4-3.1-2.8-6.1-4.2-9.2c-5.7,1.2-11.4,2.5-17,3.8l-0.1,1.6c-0.1,4.8-0.1,10.6,0.9,14.8c1,3.9,2.6,5.7,4.9,5.3l1.7-0.2
			c0.6-0.2,0.9-0.1,1,0.5s0.3,1.1,0.4,1.6s0,0.8-0.7,0.9c-5.3,1.2-10.5,2.5-15.8,3.9c-0.6,0.2-0.9,0.1-1-0.5s-0.3-1.1-0.4-1.6
			s0-0.8,0.6-1l0.6-0.3c2-0.9,2.3-2.8,2.4-7.7c0.3-3.2,0.5-9.3,0.6-14c0.6-16.7,1.6-33.5,2.9-50.3c0.1-0.7,0.2-0.9,0.8-1l3.5-0.8
			c0.6-0.1,0.7,0,1.1,0.6c9.6,17.1,18.7,34.3,27.3,51.6c5.4,10.5,5.9,11.5,8,11.3h1.1c0.6-0.1,0.9,0,1,0.6l0.3,1.7
			c0.1,0.6-0.1,0.8-0.7,0.9C392.3,83.5,386,84.7,379.8,86z M359.6,31.1h-0.1c-0.5,9.8-0.9,19.5-1.2,29.3c5-1.2,9.9-2.3,14.9-3.3
			C368.7,48.4,364.2,39.7,359.6,31.1L359.6,31.1z"/>
		<path d="M443,76.1c-0.6,0.1-0.9,0-0.9-0.7l-0.2-1.7c-0.1-0.6,0.1-0.8,0.8-0.8l3.3-0.5c1.9-0.3,2-0.8,1.2-8.8
			c-1.5-15.4-3-30.8-4.4-46.2h-0.1c-3.3,20.1-6.1,40.2-8.5,60.3c0,0.5-0.2,0.8-0.6,0.8l-3.3,0.4c-0.3,0-0.4-0.1-0.7-0.7
			c-7.1-19-14.7-37.8-22.7-56.5h-0.2l5.1,33.8c2.7,17.9,3.9,20.4,8.5,20l1.7-0.1c0.6-0.1,0.9,0,1,0.6s0.1,1.1,0.2,1.7
			s-0.1,0.8-0.8,0.8c-5.6,0.8-11.2,1.6-16.8,2.6c-0.6,0.1-0.9,0-1-0.6s-0.2-1.1-0.3-1.7s0.1-0.8,0.7-0.9l1-0.3c3-0.8,4-3.7,1.2-21.4
			c-1.8-11.6-3.6-23.2-5.5-34.7c-1.2-7.8-1.8-8.3-3.6-8.1l-3.5,0.3c-0.7,0.1-1,0.1-1.1-0.6l-0.3-1.8c-0.1-0.6,0.1-0.8,0.8-0.9
			c5.2-0.8,10.4-1.6,15.6-2.4c0.5-0.1,0.9,0,1.1,0.7c7.4,17.9,14.5,35.9,21.1,54.1h0.3c2.3-19.2,4.9-38.4,8-57.5c0-0.6,0.4-1,1-1
			c5.2-0.5,10.4-0.9,15.7-1.3c0.7,0,1,0,1,0.7s0.1,1.2,0.1,1.8s-0.2,0.8-0.9,0.8l-3.3,0.5c-1.9,0.3-2.3,0.7-1.7,8.6
			c1.3,15.8,2.5,31.5,3.8,47.3c0.6,8,0.8,8.5,2.9,8.5h3.3c0.6,0,0.9,0,0.9,0.7l0.1,1.7c0,0.6-0.2,0.8-0.8,0.8
			C455.9,74.8,449.4,75.4,443,76.1z"/>
		<path d="M499.6,72.8c-0.6,0-0.9-0.1-0.9-0.7v-1.7c0-0.6,0.2-0.8,0.9-0.8l2.1-0.2c1.6-0.1,2.7-0.3,2.7-2.5s-0.7-5-2.1-10.1
			c-0.8-3.3-1.5-6.6-2.3-9.8c-5.8,0.1-11.6,0.2-17.4,0.4c-0.1,0.5-0.3,1.1-0.4,1.6c-1,4.7-2.1,10.4-2,14.7c0.2,4,1.5,6.1,3.7,6.1
			l1.7,0.1c0.7,0,0.9,0.1,0.9,0.7s0,1.1,0,1.7s-0.2,0.8-0.8,0.8c-5.4,0.2-10.7,0.4-16.1,0.8c-0.6,0-0.9,0-0.9-0.7s-0.1-1.1-0.1-1.7
			s0.2-0.8,0.8-0.9l0.6-0.1c2.1-0.4,2.8-2.3,3.8-7.1c0.9-3,2.3-9,3.3-13.6c3.8-16.3,8-32.5,12.5-48.7c0.2-0.6,0.3-0.9,0.9-0.9
			l3.6-0.1c0.6,0,0.7,0.1,1,0.8c6,18.6,11.6,37.2,16.7,56c3.2,11.3,3.5,12.4,5.6,12.7l1.1,0.2c0.6,0,0.8,0.1,0.8,0.8s0,1.1,0,1.7
			s-0.2,0.7-0.9,0.7C512.4,72.8,506,72.7,499.6,72.8z M490.5,15h-0.1c-2.4,9.5-4.7,19-6.9,28.5c5.1-0.2,10.1-0.3,15.2-0.4
			C496.1,33.8,493.4,24.4,490.5,15z"/>
		<path d="M562.7,75.9c-0.5,0-0.7-0.2-1-0.9l-1.6-3.1h-0.2c-4,2.6-8.8,3.9-13.5,3.6c-14.2-0.9-22.5-16-22.1-37.2
			c0.5-21.9,10-38,28.3-36.8c5.3,0.4,10.1,2.3,12.7,4.5c0.2-0.6,0.3-1.1,0.5-1.7s0.3-0.9,1.2-0.8l1.3,0.1c0.8,0.1,0.9,0.4,0.9,1
			c-0.6,7-1.3,14-1.9,21c-0.1,0.7-0.2,0.9-1,0.9l-1.8-0.2c-0.7-0.1-0.8-0.3-0.7-1v-1.8c0.7-8.9-2.9-17.9-11.6-18.5
			c-14-0.9-16.4,12.8-17.2,33.9c-0.9,21.8,2.8,32.6,12.7,33.2c3.4,0.1,6.7-0.9,9.3-2.9l0.8-10.6c0.7-8,0.6-8.6-1.4-8.8l-5.4-0.7
			c-0.7,0-0.9-0.2-0.8-0.8l0.1-1.7c0-0.6,0.3-0.7,0.9-0.7c7.1,0.5,14.1,1.1,21.2,1.8c0.7,0.1,0.9,0.2,0.8,0.8l-0.2,1.7
			c-0.1,0.6-0.3,0.7-1,0.7H569c-2.1-0.1-2.3,0.4-3,8.4c-0.5,5.3-1,10.7-1.5,16c-0.1,0.6-0.2,0.8-0.8,0.8L562.7,75.9z"/>
		<path d="M576.4,76.7c-0.6-0.1-0.8-0.2-0.8-0.8s0.1-1.1,0.2-1.7s0.3-0.7,1-0.7l3.2,0.2c2.2,0.2,2.3-0.4,3.3-8.4
			c1.9-15.7,3.8-31.3,5.8-47c1-8,0.8-8.7-1.4-8.9c-1.2-0.2-2.3-0.4-3.5-0.6c-0.7-0.1-0.9-0.2-0.9-0.8s0.1-1.1,0.2-1.7s0.3-0.7,1-0.6
			c12.5,1.4,25,3.2,37.4,5.3c1,0.2,1,0.4,0.9,1c-1,6.2-2.1,12.3-3.2,18.5c-0.1,0.7-0.3,0.9-1.1,0.8l-1.8-0.3
			c-0.7-0.1-0.8-0.3-0.8-1.1c0.1-0.4,0.1-0.8,0.2-1.1c1.2-9.5-0.4-14.9-7.3-16c-3-0.5-6.1-0.9-9.1-1.3c-1.3,9.4-2.6,18.8-3.9,28.2
			l4,0.6c4.9,0.7,6.8-2.2,7.8-6.8l0.2-0.9c0.2-0.6,0.3-0.8,1-0.7l1.5,0.2c0.8,0.1,0.9,0.4,0.8,1c-1.1,7.1-2.3,14.3-3.4,21.4
			c-0.1,0.7-0.2,0.8-1,0.7l-1.4-0.2c-0.7-0.1-0.8-0.3-0.8-1s0.2-1,0.2-1.5c0.6-4.5-0.5-8-5.3-8.7l-4-0.5c-1.4,10.5-2.9,21-4.3,31.5
			c3.9,0.5,7.8,1.1,11.7,1.7c7,1.1,10-6.4,11.7-13.7l0.2-0.4c0.1-0.6,0.3-0.8,0.9-0.7l1.8,0.3c0.9,0.2,1,0.4,0.8,1
			c-1.5,6.1-2.9,12.2-4.4,18.4c-0.1,0.6-0.3,0.8-1.1,0.7C600.6,79.8,588.6,78.1,576.4,76.7z"/>
		<path d="M657,52.8L657,52.8c6.2,4.1,8.3,9.1,5.7,22.1c-2.2,10.8-2.2,14.4,0.2,15c1.4,0.4,2.6-1.5,3.7-4.6c0.2-0.4,0.5-0.6,1-0.4
			l0.8,0.4c0.5,0.3,0.6,0.6,0.3,1.3c-2.1,6-5.4,7.7-9.3,6.7c-7.8-2-7-10.2-5.4-20.3c2.3-12.8,1.3-18.5-4.5-19.9l-5.8-1.3
			c-1.6,7.6-3.3,15.2-4.9,22.8c-1.7,7.9-1.7,8.4,0.3,9l3.1,0.9c0.6,0.1,0.8,0.3,0.7,0.9s-0.3,1.1-0.4,1.7s-0.4,0.7-1,0.5
			c-6.4-1.4-12.8-2.8-19.2-4c-0.6-0.1-0.8-0.3-0.7-0.9s0.2-1.1,0.3-1.7s0.4-0.7,1-0.6l3.2,0.4c2.2,0.3,2.4-0.2,3.9-8.1
			c3.1-15.5,6.2-30.9,9.3-46.4c1.6-7.9,1.6-8.4-0.8-9l-3.5-0.9c-0.7-0.1-0.9-0.3-0.8-0.9c0.1-0.6,0.2-1.1,0.3-1.7s0.4-0.7,1.1-0.5
			c7.1,1.3,14.2,2.8,21.2,4.4c12.5,2.8,20.6,9.3,17.4,21.5C672.1,48.6,665.6,52.7,657,52.8z M656.3,21.5l-5.7-1.3l-6,28
			c1.9,0.4,3.8,0.8,5.7,1.3c7.4,1.7,11.8-1.8,14.2-11.7C667.2,26.7,663.6,23.1,656.3,21.5z"/>
		<path d="M316,74c-4.1-2-8.3-3.9-12.5-5.8c2.3-4,4.6-8,7-12c4.2,2,8.4,4,12.5,6C320.6,66.1,318.3,70,316,74z"/>
		<path d="M697.5,74c-2.3-3.9-4.6-7.9-7-11.8c4.1-2,8.3-4,12.5-6c2.4,4,4.7,8,7,12C705.8,70.1,701.7,72,697.5,74z"/>
		<rect x="357.5" y="385.7" width="298.5" height="5.2"/>
		<rect x="496.3" y="377.8" transform="matrix(0.7071 -0.7071 0.7071 0.7071 -126.1181 472.0695)" width="21" height="21"/>
	</g>
</g>
</svg>
