<svg xmlns="http://www.w3.org/2000/svg" viewBox="0 0 1013.56 403.12"><defs><style>.cls-1{fill:#e05934;}.cls-2{fill:#fff;}</style></defs><title>logo</title><g id="Layer_2" data-name="Layer 2"><g id="Layer_1-2" data-name="Layer 1"><path class="cls-1" d="M1009.16,342.3H4.4A4.4,4.4,0,0,0,0,337.9v-213a4.4,4.4,0,0,0,4.4-4.4H1009.16a4.4,4.4,0,0,0,4.4,4.4v213A4.4,4.4,0,0,0,1009.16,342.3Z"/><path class="cls-2" d="M140.42,283.9c-.94,0-1.25-.15-1.25-1.09v-2.95c0-.94.31-1.25,1.25-1.25l4.51-.16c2.8-.15,3.11-1.08,3.11-12.91V203.28h-.31l-20.39,81.56c-.15.77-.47,1.09-1.24,1.09h-8.25c-.63,0-.94-.16-1.09-1.09L96.21,203h-.3v43.58c0,26.62,1.71,31.6,7.93,31.9l2.49.16c.93,0,1.25.31,1.25,1.25v2.95c0,.94-.32,1.09-1.25,1.09h-26c-.94,0-1.25-.15-1.25-1.09v-2.95c0-.94.31-1.09,1.25-1.25l1.71-.16c4.67-.3,7-5.44,7-31.9v-49c0-11.83-.62-12.92-3.42-13.08L81,184.14c-1,0-1.25-.16-1.25-1.09v-3.12c0-.93.3-1.09,1.25-1.09h26.29c.78,0,1.41.16,1.56,1.25l18.68,77.2h.31L147,180.09c.16-1.09.78-1.25,1.56-1.25h26.15c.93,0,1.24.16,1.24,1.09v3.12c0,.93-.31,1.09-1.24,1.09l-4.67.31c-2.8.16-3.27,1.09-3.27,13.08v68c0,11.83.15,12.76,3.11,12.91l4.52.16c.93,0,1.24.31,1.24,1.25v2.95c0,.94-.31,1.09-1.24,1.09Z"/><path class="cls-2" d="M260.13,184.3c-4.51.47-6.54,5.45-6.54,31.9v30c0,27.7-7.78,39.69-28.63,39.69-20.55,0-30.67-13.23-30.67-34.71v-54c0-11.82-.15-12.76-3.26-12.91l-4.36-.16c-.94-.16-1.25-.32-1.25-1.25v-3c0-.93.31-1.09,1.25-1.09H220.6c.93,0,1.24.16,1.24,1.09v3c0,.93-.31,1.09-1.24,1.25l-4.51.16c-3,.15-3.12,1.09-3.12,12.91v51c0,19.46,4.2,28.64,16.66,28.64s16.65-8.87,16.65-30.82V216.2c0-26.61-1.09-31.43-8.72-31.9l-2.8-.16c-.93-.16-1.24-.32-1.24-1.25v-3c0-.93.31-1.09,1.24-1.09h26.93c.93,0,1.24.16,1.24,1.09v3c0,.93-.31,1.09-1.24,1.25Z"/><path class="cls-2" d="M294.09,285.93a33.44,33.44,0,0,1-17.59-4.83l-.31,2.18c-.16.94-.47,1.4-1.4,1.4h-2.18c-1.09,0-1.24-.46-1.24-1.4l-1.56-33.15c0-1.09.15-1.4,1.24-1.4h3.27c.94,0,1.09.31,1.09,1.24l.31,3.43C276.5,266.78,283,280,294.25,280c8.71,0,13.53-5.6,13.53-15.56,0-14-7.31-19.61-18.52-28.33-9.34-7-17.43-14.48-17.43-30.19,0-16.65,9.65-29.1,25.53-29.1a26.13,26.13,0,0,1,14.78,4.82l.47-2.18c0-.93.31-1.4,1.24-1.4H316c1.09,0,1.25.47,1.25,1.4v30c0,1.09-.16,1.4-1.25,1.4h-3.27c-.77,0-.93-.31-1.09-1.4V208c-.77-14.78-6.53-25.36-15.24-25.36-6.39,0-10.28,5.28-10.28,13.22,0,11.52,6.85,17.9,16.19,25.21,10.89,8.26,20.54,16,20.54,33.78C322.88,273.32,310.9,285.93,294.09,285.93Z"/><path class="cls-2" d="M333.79,283.9c-.93,0-1.25-.15-1.25-1.09v-2.95c0-.94.32-1.09,1.25-1.25l4.52-.16c3-.3,3.11-1.08,3.11-12.91V197.21c0-11.82-.15-12.76-3.11-12.91l-4.52-.16c-.93-.16-1.25-.32-1.25-1.25v-3c0-.93.32-1.09,1.25-1.09h33.93c.93,0,1.25.16,1.25,1.09v3c0,.93-.32,1.09-1.25,1.25l-4.35.16c-3.12.15-3.12,1.09-3.12,12.91v68.33c0,11.83,0,12.61,3.12,12.91l4.35.16c.93.16,1.25.31,1.25,1.25v2.95c0,.94-.32,1.09-1.25,1.09Z"/><path class="cls-2" d="M433.44,283.9c-1.09,0-1.39-.31-1.87-1.55L412.9,235.81c-3.27,4.67-4.67,8.87-4.67,15.41v14.32c0,11.83.16,12.76,3.12,12.91l4.51.16c.93.16,1.24.31,1.24,1.25v2.95c0,.94-.31,1.09-1.24,1.09H381.77c-.93,0-1.09-.15-1.09-1.09v-2.95c0-.94.16-1.09,1.09-1.25l4.52-.16c3-.15,3.11-1.08,3.11-12.91V197.21c0-11.82-.15-12.76-3.11-12.91l-4.36-.16c-.94-.16-1.25-.32-1.25-1.25v-3c0-.93.31-1.09,1.25-1.09h33.93c.93,0,1.24.16,1.24,1.09v3c0,.93-.31,1.09-1.24,1.25l-4.51.16c-3,.15-3.12,1.09-3.12,12.91v36.11h.16c2.17-5.45,7-12.45,18.52-29.57,3.43-5.76,6.38-10.58,6.38-14.63,0-3.11-1.24-4.67-4-4.82l-2.81-.16c-.94-.16-1.09-.32-1.09-1.25v-3c0-.93.15-1.09,1.09-1.09h28.79c.94,0,1.25.16,1.25,1.09v3c0,.93-.31,1.09-1.25,1.25l-1.87.16c-6.07.61-8.24,3.42-16.18,15.87l-11.36,16.65,18.67,46.23c5.3,13.39,6.23,14.94,9.66,15.4l1.55.16c.93.16,1.09.31,1.09,1.25v2.95c0,.94-.16,1.09-1.09,1.09Z"/><path class="cls-2" d="M512.55,283.9c-.93,0-1.24-.15-1.24-1.09v-2.95c0-.94.31-1.09,1.24-1.25l4.36-.16c3.11-.15,3.27-1.08,3.27-12.91v-34.4H491.86v34.4c0,11.83.15,12.76,3.26,12.91l4.36.16c.93.16,1.25.31,1.25,1.25v2.95c0,.94-.32,1.09-1.25,1.09H465.55c-.93,0-1.25-.15-1.25-1.09v-2.95c0-.94.32-1.09,1.25-1.25l4.36-.16c3-.15,3.26-1.08,3.26-12.91V197.21c0-11.82-.3-12.76-3.26-12.91l-4.36-.16c-.93-.16-1.25-.32-1.25-1.25v-3c0-.93.32-1.09,1.25-1.09h33.93c.93,0,1.25.16,1.25,1.09v3c0,.93-.32,1.09-1.25,1.25l-4.36.16c-3.11.15-3.26,1.09-3.26,12.91v27.4h28.32v-27.4c0-11.82-.16-12.76-3.27-12.91l-4.36-.16c-.93-.16-1.24-.32-1.24-1.25v-3c0-.93.31-1.09,1.24-1.09h33.93c.94,0,1.25.16,1.25,1.09v3c0,.93-.31,1.09-1.25,1.25l-4.51.16c-2.8.15-3.12,1.09-3.12,12.91v68.33c0,11.83.32,12.76,3.12,12.91l4.51.16c.94.16,1.25.31,1.25,1.25v2.95c0,.94-.31,1.09-1.25,1.09Z"/><path class="cls-2" d="M598.26,283.9c-.93,0-1.25-.15-1.25-1.09v-2.95c0-.94.32-1.09,1.25-1.25l3.11-.16c2.18-.15,3.58-.62,3.58-3.57,0-2.65-.78-6.85-2.8-14L599,247H575.69l-.47,1.86c-1.71,6.23-3.27,13.86-3.27,19.93,0,5.91,1.88,9.34,5.45,9.64l2.65.16c.93.16,1.24.31,1.24,1.25v2.95c0,.94-.31,1.09-1.24,1.09H554.53c-.94,0-1.25-.15-1.25-1.09v-2.95c0-.94.31-1.09,1.25-1.25l1.24-.16c3.12-.46,4.21-2.48,6.85-11.2,1.55-4.82,3.89-12.92,5.76-19.76l19.3-69.42c.16-.94.3-1.24,1.24-1.24h9.18c.94,0,1.09.15,1.41,1.24l22.87,82.8c4.36,16.19,5.14,17.28,8.4,17.58l2,.16c.93.16,1.25.31,1.25,1.25v2.95c0,.94-.32,1.09-1.25,1.09Zm-10.74-80.46h-.16l-9.8,37.35h19.61Z"/><path class="cls-2" d="M699.5,285.93c-.62,0-.94-.32-1.4-1.09L657.94,203.9h-.15v42.65c0,26.62,3.27,31.6,10.12,31.9l3.57.16c.94.16,1.25.31,1.25,1.25v2.95c0,.94-.31,1.09-1.25,1.09H641.76c-.94,0-1.24-.15-1.24-1.09v-2.95c0-.94.3-1.09,1.24-1.25l1.71-.16c4.67-.3,7.16-5.44,7.16-31.9v-49c0-12-.47-12.92-3.27-13.08l-4.82-.31c-.94,0-1.25-.16-1.25-1.09v-3.12c0-.93.31-1.09,1.25-1.09h23.19c.93,0,1.24.32,1.71,1.25l34.4,71.13h.31v-35c0-26.61-3.43-31.43-10.12-31.9l-3.58-.16c-.94-.16-1.24-.32-1.24-1.25v-3c0-.93.3-1.09,1.24-1.09h29.42c.93,0,1.24.16,1.24,1.09v3c0,.93-.31,1.09-1.24,1.25l-1.71.16c-4.52.47-7,5.45-7,31.9v68.64c0,.77-.31,1.09-1.24,1.09Z"/><path class="cls-2" d="M766.73,283.9H728.91c-.93,0-1.24-.15-1.24-1.09v-2.95c0-.94.31-1.09,1.24-1.25l4.36-.16c3.12-.15,3.27-1.08,3.27-12.91V197.21c0-11.82-.15-12.76-3.27-12.91l-4.36-.16c-.93-.16-1.24-.32-1.24-1.25v-3c0-.93.31-1.09,1.24-1.09h35.8c25.53,0,42.64,16.82,42.64,51.37C807.35,264.92,789.15,283.9,766.73,283.9Zm-4.35-98.51h-7.16v92h8.71c16.65,0,22.88-13.7,22.88-46.07C786.81,197.06,779,185.39,762.38,185.39Z"/><path class="cls-2" d="M812.39,283.9c-.94,0-1.09-.15-1.09-1.09v-2.95c0-.94.15-1.25,1.09-1.25l4.51-.16c3-.15,3.27-1.08,3.27-12.91V197.21c0-11.82-.31-12.76-3.27-12.91l-4.36-.16c-.93-.16-1.24-.32-1.24-1.25v-3c0-.93.31-1.09,1.24-1.09H868c1.09,0,1.24.47,1.24,1.41v30.19c0,1.09-.15,1.4-1.24,1.4h-3.26c-.78,0-.94-.31-1.1-1.4v-2c-.47-14.63-3.58-23.35-13.85-23.35H838.85V226H844c6.22,0,8.24-5,8.55-12.61l.16-1.4c0-1.09.16-1.4,1.09-1.4h2.8c1.09,0,1.25.46,1.25,1.4v34.55c0,1.09-.16,1.4-1.25,1.4h-2.8c-.93,0-1.09-.31-1.09-1.4l-.16-2.18c-.15-7.47-2.33-12.45-8.55-12.45h-5.14v45.76h15.56c10.89,0,13.85-11.36,14.78-24.13l.16-1.4c.16-.93.32-1.4,1.09-1.4h3.27c1.09,0,1.24.47,1.24,1.4l-1.39,30.35c0,.93-.16,1.4-1.25,1.4Z"/><path class="cls-2" d="M884.21,283.9c-.94,0-1.25-.15-1.25-1.09v-2.95c0-.94.31-1.09,1.25-1.25l4.52-.16c2.8-.15,3.1-1.08,3.1-12.91V197.21c0-11.82-.3-12.76-3.1-12.91l-4.52-.16c-.94-.16-1.25-.32-1.25-1.25v-3c0-.93.31-1.09,1.25-1.09h36.11c.93,0,1.25.16,1.25,1.09v3c0,.93-.32,1.25-1.25,1.25l-6.69.16c-3,.15-3.12,1.09-3.12,12.91v80.47h11.91c10.58,0,14.47-10.27,15.25-30.35,0-1.09.31-1.4,1.08-1.4H942c.94,0,1.1.31,1.1,1.4l-1.56,35.17c0,.93-.15,1.4-1.24,1.4Z"/><path d="M379.79,86c-.62.14-.86.08-1-.55s-.23-1.1-.35-1.65.06-.78.69-.91l2-.62c1.58-.44,2.6-.86,2.18-2.94s-1.62-4.75-4.07-9.54q-2.07-4.6-4.19-9.2-8.54,1.78-17.05,3.8L357.93,66c-.13,4.82-.1,10.6.93,14.82.95,3.91,2.61,5.68,4.86,5.26l1.74-.2c.64-.15.87-.09,1,.54s.26,1.09.38,1.64,0,.77-.67.92q-7.89,1.84-15.76,3.9c-.63.17-.87.12-1-.49s-.29-1.09-.43-1.64,0-.78.63-1l.61-.27c2-.86,2.31-2.79,2.42-7.73.34-3.15.52-9.31.63-14q.93-25.1,2.9-50.29c.09-.67.17-.91.76-1l3.55-.78c.58-.12.72,0,1.11.63q14.34,25.58,27.33,51.64c5.35,10.52,5.92,11.5,8,11.34H398c.63-.11.87,0,1,.59l.3,1.66c.11.63-.09.77-.72.88Q389.16,84,379.79,86Zm-20.21-54.9-.12,0q-.79,14.66-1.24,29.29,7.45-1.75,14.93-3.33Q366.52,44,359.58,31.05Z"/><path d="M443,76.07c-.64.06-.87,0-.93-.65l-.18-1.68c-.06-.64.14-.77.79-.84l3.31-.54c1.93-.29,2-.83,1.22-8.85Q445,40.42,442.77,17.33h-.11q-4.94,30.17-8.51,60.35c0,.53-.23.77-.56.81l-3.31.4c-.31,0-.44-.06-.73-.65q-10.68-28.44-22.69-56.53l-.24,0,5.07,33.83c2.69,17.92,3.94,20.4,8.47,20l1.72-.14c.65-.09.88,0,1,.62s.15,1.12.23,1.68-.12.76-.76.85q-8.43,1.17-16.83,2.56c-.64.11-.87,0-1-.59s-.18-1.11-.28-1.67.09-.77.74-.88l1-.27c3-.82,4-3.66,1.24-21.45q-2.73-17.37-5.45-34.73c-1.23-7.85-1.79-8.3-3.58-8.12l-3.46.34c-.7.12-.95.06-1.06-.57l-.3-1.78c-.1-.62.12-.77.83-.89Q402,9.24,409.81,8.12c.48-.07.85,0,1.07.71Q422,35.71,432,62.91l.33,0q3.41-28.77,8-57.54a1,1,0,0,1,1-1q7.83-.73,15.67-1.31c.72,0,1,0,1,.67s.09,1.2.13,1.8-.19.75-.89.8l-3.32.46c-1.9.27-2.34.72-1.7,8.64q1.9,23.64,3.82,47.29c.65,8,.8,8.55,2.86,8.5l3.25,0c.65,0,.87,0,.91.69l.12,1.68c.05.64-.16.75-.8.8Q452.65,75.07,443,76.07Z"/><path d="M499.64,72.8c-.64,0-.86-.09-.86-.72l0-1.7c0-.64.21-.75.85-.76l2.06-.22c1.62-.13,2.69-.34,2.69-2.46s-.66-5-2.13-10.15q-1.14-4.92-2.31-9.84-8.69.09-17.36.42c-.13.54-.26,1.07-.38,1.61-1.05,4.7-2.15,10.37-2,14.71.18,4,1.46,6.08,3.73,6.11l1.73.14c.66,0,.87.08.89.72s0,1.13.05,1.69-.18.75-.83.77q-8.05.27-16.11.76c-.64,0-.87,0-.91-.69s-.07-1.12-.1-1.69.16-.76.81-.9l.65-.14c2.14-.45,2.79-2.29,3.84-7.11.94-3,2.3-9,3.32-13.64Q483,25.28,489.81,1c.22-.65.34-.86.94-.87L494.36,0c.6,0,.72.1,1,.84q9,27.87,16.7,56c3.2,11.35,3.55,12.43,5.62,12.67l1.08.23c.64,0,.85.12.85.76s0,1.13,0,1.7-.23.73-.87.72Q509.16,72.7,499.64,72.8ZM490.51,15h-.12q-3.6,14.24-6.86,28.5,7.61-.27,15.21-.37Q494.78,29.07,490.51,15Z"/><path d="M562.65,75.93c-.53,0-.74-.17-1-.94l-1.57-3.12-.22,0a22,22,0,0,1-13.55,3.56c-14.22-.9-22.52-16-22.07-37.16.47-21.87,10-38,28.27-36.85,5.29.35,10.07,2.34,12.66,4.47.16-.55.33-1.1.49-1.66s.33-.92,1.16-.85l1.32.11c.83.08.93.41.87,1q-.94,10.5-1.9,21c-.06.74-.21.94-1,.86l-1.84-.16c-.7-.06-.79-.28-.73-1l0-1.8c.67-8.87-2.89-17.93-11.63-18.51-14-.87-16.37,12.83-17.24,33.86-.89,21.81,2.76,32.61,12.72,33.25a14.34,14.34,0,0,0,9.33-2.93l.84-10.56c.65-8,.59-8.56-1.43-8.83L550.71,49c-.68-.05-.88-.17-.84-.8l.12-1.69c0-.63.26-.73.94-.68q10.61.72,21.19,1.8c.68.07.88.2.82.83l-.18,1.69c-.06.63-.29.71-1,.65l-2.71,0c-2.13-.09-2.28.43-3,8.43q-.76,8-1.51,16c-.06.63-.19.83-.83.77Z"/><path d="M576.43,76.7c-.64-.07-.85-.2-.78-.83s.13-1.12.19-1.68.3-.73.95-.65l3.24.17c2.17.15,2.34-.36,3.32-8.36q2.88-23.49,5.75-47c1-8,.82-8.66-1.44-8.92-1.17-.22-2.35-.42-3.53-.63-.71-.08-.94-.22-.87-.84s.12-1.13.19-1.69.32-.71,1-.63q18.74,2.13,37.37,5.28c.95.16,1,.39.92,1q-1.57,9.24-3.16,18.48c-.12.72-.27.92-1.07.78l-1.85-.31c-.68-.12-.77-.34-.76-1.09.06-.39.13-.77.19-1.15,1.21-9.46-.44-14.91-7.3-16q-4.56-.68-9.12-1.31-1.94,14.12-3.86,28.23l4,.56c4.87.7,6.82-2.19,7.76-6.77l.15-.94c.21-.62.35-.81,1-.7l1.49.23c.82.13.89.36.79,1q-1.69,10.72-3.4,21.44c-.11.73-.24.82-1,.69l-1.44-.22c-.66-.1-.85-.35-.76-1s.15-1,.23-1.47c.58-4.51-.5-8-5.35-8.71l-3.95-.55q-2.16,15.74-4.31,31.48,5.85.8,11.69,1.71c7,1.1,10-6.41,11.72-13.75l.18-.4c.1-.62.25-.82.91-.7l1.75.3c.89.15,1,.39.85,1q-2.19,9.18-4.36,18.36c-.11.63-.25.82-1.1.68Q594.63,78.76,576.43,76.7Z"/><path d="M657.05,52.83l0,.1c6.15,4,8.29,9,5.67,22-2.15,10.82-2.19,14.41.24,15,1.37.36,2.64-1.49,3.7-4.61.21-.39.51-.64,1-.4l.8.44c.5.25.64.6.34,1.29-2.08,6-5.42,7.65-9.29,6.66-7.84-2-7-10.22-5.37-20.31,2.27-12.85,1.26-18.55-4.55-19.86l-5.81-1.27q-2.44,11.39-4.88,22.78c-1.69,7.88-1.69,8.41.3,9l3.14.9c.64.14.83.3.69.92s-.25,1.1-.37,1.65-.37.68-1,.53q-9.55-2.13-19.15-4c-.64-.12-.83-.26-.71-.89s.2-1.11.31-1.66.36-.7,1-.58l3.23.42c2.16.31,2.36-.18,3.94-8.08q4.63-23.21,9.28-46.42c1.57-7.9,1.57-8.44-.78-9l-3.48-.89c-.71-.13-.92-.29-.81-.9s.21-1.12.32-1.68.37-.68,1.09-.54q10.64,2,21.24,4.39c12.51,2.8,20.59,9.32,17.4,21.51C672.11,48.59,665.56,52.67,657.05,52.83Zm-.75-31.36-5.74-1.25-6,28c1.91.41,3.82.82,5.73,1.25,7.38,1.66,11.79-1.82,14.19-11.7C667.15,26.72,663.58,23.1,656.3,21.47Z"/><path d="M316,74q-6.18-3-12.46-5.83,3.4-6,7-12,6.3,2.94,12.49,6Q319.44,68.06,316,74Z"/><path d="M697.55,74q-3.43-5.92-7-11.83,6.19-3,12.49-6,3.57,6,7,12Q703.71,71,697.55,74Z"/><rect x="357.51" y="385.68" width="298.55" height="5.19"/><rect x="496.28" y="377.77" width="21.01" height="21.01" transform="translate(422.98 -244.63) rotate(45)"/></g></g></svg>
